# xmcd
#
# Track frame offsets:
#	150
#	28590
#	40753
#	62687
#	80492
#	89203
#	106652
#	126153
#	142997
#	154245
#	163704
#	186338
#	208310
#	221039
#	247707
#	274643
#	297429
#
# Disc length: 4238 seconds
#
# Revision: 3
# Processed by: cddbd v1.5.2PL0 Copyright (c) Steve Scherf et al.
# Submitted via: audiograbber 1.83.01
#
DISCID=fa108c11
DTITLE=Status Quo - Pictures - Live At Montreux 2009
DYEAR=2017
DGENRE=Rock
TTITLE0=Caroline [live]
TTITLE1=The Wanderer [live]
TTITLE2=Rain [live]
TTITLE3=Don't Drive My Car [live]
TTITLE4=Mean Girl [live]
TTITLE5=Softer Ride [live]
TTITLE6=Beginning Of The End [live]
TTITLE7=Is There A Better Way [live]
TTITLE8=Pictures Of Matchstick Men [live]
TTITLE9=Ice In The Sun [live]
TTITLE10=The Oriental [live]
TTITLE11=Creepin' Up On You [live]
TTITLE12=Living On An Island [live]
TTITLE13=Roll Over Lay Down [live]
TTITLE14=Down Down [live]
TTITLE15=Whatever You Want [live]
TTITLE16=Rockin' All Over The World [live]
EXTD=
EXTT0=
EXTT1=
EXTT2=
EXTT3=
EXTT4=
EXTT5=
EXTT6=
EXTT7=
EXTT8=
EXTT9=
EXTT10=
EXTT11=
EXTT12=
EXTT13=
EXTT14=
EXTT15=
EXTT16=
PLAYORDER=
